<svg width="52" height="54" viewBox="0 0 52 54" fill="none" xmlns="http://www.w3.org/2000/svg">
<rect x="39.6982" width="43.9145" height="41.3539" rx="5.75692" transform="rotate(73.732 39.6982 0)" fill="#F2F4F7"/>
<path d="M11.9836 21.6997L13.1646 40.6403C13.2152 41.4524 13.9211 42.0658 14.7324 42.0024L20.521 41.5506C21.3234 41.488 21.9231 40.7868 21.8605 39.9844L21.3621 33.5989C21.3326 33.2216 21.1575 32.8705 20.8738 32.62L16.5696 28.8191C16.4925 28.751 16.4449 28.6556 16.4369 28.553C16.4116 28.2286 16.7666 28.0137 17.0423 28.1866L24.1599 32.6496C24.7995 33.0507 25.6395 32.8968 26.0955 32.2951L36.8888 18.0513C37.1899 17.6539 37.7396 17.5425 38.1718 17.7911C38.4916 17.9752 38.8931 17.7572 38.913 17.3888L39.2323 11.4803C39.2441 11.2617 39.0197 11.1086 38.8205 11.1993L32.5562 14.0527C32.1874 14.2207 32.1485 14.7293 32.4875 14.9513C32.983 15.276 33.1028 15.9509 32.7493 16.4263L25.2065 26.5674C24.9787 26.8737 24.553 26.9523 24.2308 26.7473L14.2202 20.3794C13.2153 19.7402 11.9095 20.511 11.9836 21.6997Z" fill="#044DEA"/>
<path d="M36.9582 21.1324L30.1551 30.0778C29.9387 30.3625 29.8344 30.7168 29.8622 31.0734L30.4711 38.8738C30.5337 39.6762 31.235 40.2759 32.0373 40.2133L38.9385 39.6746C39.7409 39.612 40.3406 38.9107 40.2779 38.1083L38.9998 21.7331C38.9636 21.2689 38.6484 20.8735 38.2039 20.7347C37.7463 20.5919 37.2483 20.7509 36.9582 21.1324Z" fill="#7560E2"/>
</svg>
